# xmcd CD database file
# Copyright (C) 1993-1998 Ti Kan
#
# Track frame offsets:
#  150
#  15267
#  27822
#  38577
#  57575
#  73625
#  85757
#  100742
#  115332
#
# Disc length: 1718 seconds
#
# Revision: 1
# Processed by: cddbd v1.4b41PL1 Copyright (c) Steve Scherf et al.
# Submitted via: CDWizzard Release:4.35
#
DISCID=6506b409
DTITLE=Buckshot - Shot To The Heart
DYEAR=1900
DGENRE=
TTITLE0=Who's Holding You Tonight
TTITLE1=Sweet Dreams Darlin'
TTITLE2=Lovin' and Losin'
TTITLE3=Storms In My Heart
TTITLE4=My Heart Won't Let You Go
TTITLE5=Feelin' Kinda Lonely Tonite
TTITLE6=Silent Voices
TTITLE7=Little Less Talk
TTITLE8=The Magic Of Love
EXTD=
EXTT0=
EXTT1=
EXTT2=
EXTT3=
EXTT4=
EXTT5=
EXTT6=
EXTT7=
EXTT8=
PLAYORDER=
